# This file uses centimeters as units for non-parametric coordinates.

mtllib U_Wall.mtl
g default
v -5.605370 -0.500000 0.500000
v 0.000000 -0.500000 5.346233
v 5.605370 -0.500000 0.500000
v -5.605370 9.500000 0.500000
v 0.000000 9.500000 5.346233
v 5.605370 9.500000 0.500000
v -5.000000 9.500000 -0.500000
v 0.000000 9.500000 4.346233
v 5.000000 9.500000 -0.500000
v -5.000000 -0.500000 -0.500000
v 0.000000 -0.500000 4.346233
v 5.000000 -0.500000 -0.500000
v -1.426858 9.500000 4.103590
v -1.426858 -0.500000 4.103590
v -1.935514 -0.500000 4.964560
v -1.935514 9.500000 4.964560
v 1.426859 9.500000 4.103591
v 1.426859 -0.500000 4.103591
v 1.935514 -0.500000 4.964560
v 1.935514 9.500000 4.964560
v -3.264554 9.500000 2.944285
v -3.264554 -0.500000 2.944285
v -3.822430 -0.500000 3.738643
v -3.822430 9.500000 3.738643
v 3.264554 9.500000 2.944285
v 3.264554 -0.500000 2.944285
v 3.822430 -0.500000 3.738643
v 3.822430 9.500000 3.738643
v -4.321413 9.500000 1.268877
v -4.321413 -0.500000 1.268877
v -5.136237 -0.500000 1.742029
v -5.136237 9.500000 1.742029
v 4.321414 9.500000 1.268876
v 4.321414 -0.500000 1.268876
v 5.136237 -0.500000 1.742029
v 5.136237 9.500000 1.742029
vt 0.375000 0.000000
vt 0.500000 0.000000
vt 0.625000 0.000000
vt 0.375000 0.250000
vt 0.500000 0.250000
vt 0.625000 0.250000
vt 0.375000 0.500000
vt 0.500000 0.500000
vt 0.625000 0.500000
vt 0.375000 0.750000
vt 0.500000 0.750000
vt 0.625000 0.750000
vt 0.375000 1.000000
vt 0.500000 1.000000
vt 0.625000 1.000000
vt 0.875000 0.000000
vt 0.875000 0.250000
vt 0.125000 0.000000
vt 0.125000 0.250000
vt 0.434655 0.500000
vt 0.434655 0.750000
vt 0.434655 0.000000
vt 0.434655 1.000000
vt 0.434655 0.250000
vt 0.565345 0.500000
vt 0.565345 0.750000
vt 0.565345 0.000000
vt 0.565345 1.000000
vt 0.565345 0.250000
vt 0.417087 0.500000
vt 0.417087 0.750000
vt 0.417087 0.000000
vt 0.417087 1.000000
vt 0.417087 0.250000
vt 0.582913 0.500000
vt 0.582913 0.750000
vt 0.582913 0.000000
vt 0.582913 1.000000
vt 0.582913 0.250000
vt 0.393379 0.500000
vt 0.393379 0.750000
vt 0.393379 0.000000
vt 0.393379 1.000000
vt 0.393379 0.250000
vt 0.606621 0.500000
vt 0.606621 0.750000
vt 0.606621 0.000000
vt 0.606621 1.000000
vt 0.606621 0.250000
vn -0.935491 0.000000 0.353349
vn -0.876023 0.000000 0.482269
vn -0.876023 0.000000 0.482269
vn -0.935491 0.000000 0.353349
vn 0.000000 0.000000 1.000000
vn 0.387677 0.000000 0.921795
vn 0.387677 0.000000 0.921795
vn 0.000000 0.000000 1.000000
vn 0.000000 1.000000 0.000000
vn 0.000000 1.000000 0.000000
vn 0.000000 1.000000 0.000000
vn 0.000000 1.000000 0.000000
vn 0.000000 1.000000 0.000000
vn 0.000000 1.000000 0.000000
vn 0.000000 1.000000 0.000000
vn 0.000000 1.000000 0.000000
vn 0.933655 0.000000 -0.358174
vn 0.893043 0.000000 -0.449971
vn 0.893043 0.000000 -0.449971
vn 0.933655 0.000000 -0.358174
vn 0.000000 0.000000 -1.000000
vn -0.394598 0.000000 -0.918854
vn -0.394598 0.000000 -0.918854
vn 0.000000 0.000000 -1.000000
vn 0.000000 -1.000000 0.000000
vn 0.000000 -1.000000 0.000000
vn 0.000000 -1.000000 0.000000
vn 0.000000 -1.000000 0.000000
vn 0.000000 -1.000000 0.000000
vn 0.000000 -1.000000 0.000000
vn 0.000000 -1.000000 0.000000
vn 0.000000 -1.000000 0.000000
vn 0.855459 0.000000 -0.517870
vn 0.855459 0.000000 -0.517870
vn 0.855459 0.000000 -0.517870
vn 0.855459 0.000000 -0.517870
vn -0.855459 0.000000 -0.517870
vn -0.855459 0.000000 -0.517870
vn -0.855459 0.000000 -0.517870
vn -0.855459 0.000000 -0.517870
vn 0.394598 0.000000 -0.918854
vn 0.394598 0.000000 -0.918854
vn 0.000000 -1.000000 0.000000
vn 0.000000 -1.000000 0.000000
vn -0.387677 0.000000 0.921795
vn -0.387677 0.000000 0.921795
vn 0.000000 1.000000 0.000000
vn 0.000000 1.000000 0.000000
vn -0.699683 0.000000 -0.714453
vn -0.699683 0.000000 -0.714453
vn 0.000000 -1.000000 0.000000
vn 0.000000 -1.000000 0.000000
vn 0.709503 0.000000 0.704702
vn 0.709503 0.000000 0.704702
vn 0.000000 1.000000 0.000000
vn 0.000000 1.000000 0.000000
vn 0.699683 0.000000 -0.714453
vn 0.699683 0.000000 -0.714453
vn 0.000000 -1.000000 0.000000
vn 0.000000 -1.000000 0.000000
vn -0.709503 0.000000 0.704702
vn -0.709503 0.000000 0.704702
vn 0.000000 1.000000 0.000000
vn 0.000000 1.000000 0.000000
vn -0.893043 0.000000 -0.449971
vn -0.893043 0.000000 -0.449971
vn 0.000000 -1.000000 0.000000
vn 0.000000 -1.000000 0.000000
vn 0.876023 0.000000 0.482269
vn 0.876023 0.000000 0.482269
vn 0.000000 1.000000 0.000000
vn 0.000000 1.000000 0.000000
vn -0.933655 0.000000 -0.358174
vn -0.933655 0.000000 -0.358174
vn 0.000000 -1.000000 0.000000
vn 0.000000 -1.000000 0.000000
vn 0.935491 0.000000 0.353349
vn 0.935491 0.000000 0.353349
vn 0.000000 1.000000 0.000000
vn 0.000000 1.000000 0.000000
s 1
g pCube1
usemtl initialShadingGroup
f 1/1/1 31/42/2 32/44/3 4/4/4
f 2/2/5 19/27/6 20/29/7 5/5/8
s 3
f 4/4/9 32/44/10 29/40/11 7/7/12
f 5/5/13 20/29/14 17/25/15 8/8/16
s 5
f 7/7/17 29/40/18 30/41/19 10/10/20
f 8/8/21 17/25/22 18/26/23 11/11/24
s 7
f 10/10/25 30/41/26 31/43/27 1/13/28
f 11/11/29 18/26/30 19/28/31 2/14/32
s off
f 3/3/33 12/16/34 9/17/35 6/6/36
f 10/18/37 1/1/38 4/4/39 7/19/40
s 5
f 13/20/41 8/8/21 11/11/24 14/21/42
s 7
f 15/23/43 14/21/44 11/11/29 2/14/32
s 1
f 16/24/45 15/22/46 2/2/5 5/5/8
s 3
f 13/20/47 16/24/48 5/5/13 8/8/16
s 5
f 17/25/22 25/35/49 26/36/50 18/26/23
s 7
f 19/28/31 18/26/30 26/36/51 27/38/52
s 1
f 20/29/7 19/27/6 27/37/53 28/39/54
s 3
f 17/25/15 20/29/14 28/39/55 25/35/56
s 5
f 21/30/57 13/20/41 14/21/42 22/31/58
s 7
f 23/33/59 22/31/60 14/21/44 15/23/43
s 1
f 24/34/61 23/32/62 15/22/46 16/24/45
s 3
f 21/30/63 24/34/64 16/24/48 13/20/47
s 5
f 25/35/49 33/45/65 34/46/66 26/36/50
s 7
f 27/38/52 26/36/51 34/46/67 35/48/68
s 1
f 28/39/54 27/37/53 35/47/69 36/49/70
s 3
f 25/35/56 28/39/55 36/49/71 33/45/72
s 5
f 29/40/18 21/30/57 22/31/58 30/41/19
s 7
f 31/43/27 30/41/26 22/31/60 23/33/59
s 1
f 32/44/3 31/42/2 23/32/62 24/34/61
s 3
f 29/40/11 32/44/10 24/34/64 21/30/63
s 5
f 33/45/65 9/9/73 12/12/74 34/46/66
s 7
f 35/48/68 34/46/67 12/12/75 3/15/76
s 1
f 36/49/70 35/47/69 3/3/77 6/6/78
s 3
f 33/45/72 36/49/71 6/6/79 9/9/80
